PathFileType	4	(X/Y/Z)	C:/Users/opensim2020/Desktop/walking_exp_matlab/subject06_walking18_straight_04.trc	
DataRate	CameraRate	NumFrames	NumMarkers	Units	OrigDataRate	OrigDataStartFrame	OrigNumFrames	
100.00	100.00	4	47	mm	100.00	4878	409	
Frame#	Time	LFHD			RFHD			LBHD			RBHD			C7			T10			CLAV			STRN			RBAK			LSHO			LUPA			LELB			LFRM			LWRA			LWRB			LFIN			RSHO			RUPA			RELB			RFRM			RWRA			RWRB			RFIN			LASI			RASI			LPSI			RPSI			LTHI			LKNE			LTIB			LANK			LHEE			LTOE			RTHI			RKNE			RTIB			RANK			RHEE			RTOE			*39			*40			*41			*42			*43			*44			*45			*46			
		X1	Y1	Z1	X2	Y2	Z2	X3	Y3	Z3	X4	Y4	Z4	X5	Y5	Z5	X6	Y6	Z6	X7	Y7	Z7	X8	Y8	Z8	X9	Y9	Z9	X10	Y10	Z10	X11	Y11	Z11	X12	Y12	Z12	X13	Y13	Z13	X14	Y14	Z14	X15	Y15	Z15	X16	Y16	Z16	X17	Y17	Z17	X18	Y18	Z18	X19	Y19	Z19	X20	Y20	Z20	X21	Y21	Z21	X22	Y22	Z22	X23	Y23	Z23	X24	Y24	Z24	X25	Y25	Z25	X26	Y26	Z26	X27	Y27	Z27	X28	Y28	Z28	X29	Y29	Z29	X30	Y30	Z30	X31	Y31	Z31	X32	Y32	Z32	X33	Y33	Z33	X34	Y34	Z34	X35	Y35	Z35	X36	Y36	Z36	X37	Y37	Z37	X38	Y38	Z38	X39	Y39	Z39	X40	Y40	Z40	X41	Y41	Z41	X42	Y42	Z42	X43	Y43	Z43	X44	Y44	Z44	X45	Y45	Z45	X46	Y46	Z46	X47	Y47	Z47	

358	3.570	-946.05432	-920.70605	1642.41980	-1077.60950	-929.01233	1634.33875	-956.46216	-785.60889	1592.55884	-1083.74097	-795.04059	1589.87036	-1016.60327	-784.69507	1434.31299	-1028.81726	-747.74731	1104.56348	-1012.69153	-891.57257	1355.59558	-1012.35132	-928.97180	1179.40930	-1106.23938	-713.53851	1267.01355	-852.65070	-827.47467	1383.64807	-789.02820	-788.81067	1183.45728	-781.66626	-764.27051	1073.64429	-757.19025	-770.10675	923.43030	-788.93744	-827.88666	804.72284	-763.82739	-761.68207	804.15326	-756.72717	-795.91461	720.21497	-1174.88892	-857.60309	1393.23328	-1271.44873	-827.13318	1197.55627	-1284.58899	-840.69458	1076.48596	-1294.21045	-879.66925	962.81195	-1247.70117	-964.55109	843.29529	-1293.11682	-916.60999	830.90051	-1286.57068	-969.26013	765.07062	-923.79102	-933.05908	950.31854	-1143.76306	-918.19165	947.43909	-939.98627	-773.27881	972.41583	-1109.41748	-767.40784	974.53131	-849.50873	-921.72870	639.49182	-880.70636	-970.72449	487.26022	-886.70374	-1008.83246	233.67798	-924.40356	-1067.81567	69.43806	-976.47522	-1042.84460	42.55157	-913.85052	-1214.27222	83.39719	-1176.81262	-820.56543	614.65912	-1153.27612	-798.04279	489.93649	-1143.48706	-667.27124	252.99680	-1094.03284	-589.94940	82.96898	-1050.78210	-542.27893	68.47776	-1083.36694	-734.93195	29.32832	-1011.28864	-826.13782	1685.30298																					 
359	3.580	-944.46564	-927.21741	1641.52271	-1076.06921	-935.23907	1633.54028	-954.77142	-792.05646	1591.65527	-1082.28113	-801.63873	1589.20996	-1015.58411	-790.17279	1434.03540	-1027.23474	-754.47754	1103.87378	-1011.37482	-898.09100	1354.79590	-1011.45947	-935.82538	1178.70508	-1104.27722	-719.78088	1266.44287	-851.08344	-834.49896	1382.71570	-787.47681	-796.24347	1182.26355	-780.28412	-771.93646	1072.45703	-756.18945	-778.17249	922.06769	-787.77820	-836.30450	803.77405	-762.79578	-770.04523	802.81140	-755.63654	-804.33411	719.07642	-1173.45642	-863.48370	1392.66846	-1269.97852	-832.75214	1196.98853	-1283.32605	-846.51257	1076.00537	-1293.21594	-885.45569	962.36432	-1246.93628	-970.38190	842.75897	-1292.30530	-922.44312	830.41901	-1285.90137	-975.01447	764.59735	-923.26599	-940.90674	949.50763	-1143.20996	-924.78094	946.86578	-938.66412	-780.98859	971.54547	-1107.99658	-774.21045	973.72504	-849.25128	-928.80707	638.20453	-880.49890	-976.71033	485.59116	-886.44006	-1013.64612	231.81865	-924.49402	-1071.38452	67.31949	-975.95496	-1045.25793	40.88189	-915.97290	-1217.57153	80.45460	-1176.63342	-826.33319	614.15161	-1153.00293	-803.67914	489.34528	-1143.38110	-670.27563	253.73714	-1094.20129	-590.90436	84.55457	-1050.97534	-542.84155	70.82107	-1083.40259	-735.07098	29.31439	-1009.52539	-832.52460	1684.43201																					 
360	3.590	-942.82343	-933.76251	1640.60010	-1074.43701	-941.51404	1632.74561	-952.85242	-798.63513	1590.74683	-1081.80359	-808.80585	1588.55103	-1013.74689	-796.47369	1433.13525	-1025.40320	-761.82166	1102.58716	-1009.99939	-904.65698	1354.03479	-1010.49988	-942.81134	1178.03967	-1102.57007	-726.37518	1265.27625	-849.49237	-841.59204	1381.59583	-785.94110	-803.93945	1181.17542	-778.72131	-779.83386	1071.31946	-754.83722	-786.45624	920.93823	-787.02063	-844.13788	802.47192	-761.41602	-778.59607	801.57990	-754.45264	-813.05396	717.96008	-1171.76355	-869.38354	1392.03052	-1268.56567	-838.66217	1196.55603	-1282.03137	-852.35223	1075.54272	-1292.15625	-891.23462	961.90918	-1246.18384	-976.27332	842.27930	-1291.60400	-928.30054	830.05511	-1285.21460	-980.83417	764.13141	-922.81366	-948.91919	948.62238	-1142.65845	-931.48651	946.25177	-937.21832	-789.06714	970.64563	-1106.53430	-781.25323	972.98102	-848.87677	-935.95135	636.91510	-880.18610	-982.77875	483.90750	-886.35229	-1017.92743	229.99458	-924.69421	-1073.85315	64.97958	-975.68445	-1046.61060	38.97445	-917.94678	-1220.08582	76.42666	-1176.08289	-832.22498	613.53027	-1152.81042	-809.66730	488.72867	-1143.24426	-673.51392	254.47363	-1094.35547	-591.89288	86.27885	-1051.09106	-543.85120	73.09856	-1083.44910	-735.17316	29.27636	-1007.67621	-838.94128	1683.68127																					 
361	3.600	-941.12897	-940.28809	1639.79907	-1072.78052	-947.78607	1631.99695	-950.93597	-805.19391	1589.95129	-1079.73267	-815.10272	1587.70178	-1011.69556	-802.94781	1431.85852	-1023.53772	-769.18738	1101.84802	-1008.56628	-911.34674	1353.35254	-1009.50421	-950.06519	1177.49316	-1100.70288	-732.77844	1264.27075	-847.82001	-848.79254	1380.59338	-784.37006	-811.82605	1180.05640	-777.15094	-787.81567	1070.16675	-752.97577	-794.94214	919.91919	-785.48621	-853.24188	801.71869	-760.19592	-787.29047	800.38940	-753.28070	-821.97760	716.92505	-1170.11792	-875.25439	1391.46216	-1267.09839	-844.23212	1196.10718	-1280.63135	-858.16718	1075.10095	-1291.12756	-897.03699	961.49554	-1245.50354	-982.16113	841.81213	-1290.76965	-934.05634	829.61896	-1284.56531	-986.65747	763.67596	-922.34399	-957.07587	947.69379	-1142.14294	-938.48938	945.65845	-935.77899	-797.13580	969.90198	-1104.69507	-789.82452	971.70300	-848.20532	-943.39581	635.55945	-879.69183	-988.79999	482.32175	-886.38910	-1021.98688	228.19672	-925.62317	-1075.69824	63.00570	-976.67474	-1047.62195	38.64630	-919.19891	-1222.22156	70.41088	-1175.74927	-838.37518	612.93274	-1152.61963	-815.74121	488.03558	-1143.07300	-676.86133	255.30496	-1094.24707	-591.68738	89.03874	-1051.20789	-544.97583	75.52743	-1083.51697	-735.25586	29.21309	-1005.78174	-845.38538	1682.86023																					 
